<svg width="27" height="26" viewBox="0 0 27 26" fill="none" xmlns="http://www.w3.org/2000/svg">
<path d="M27 12.0002C27 10.4089 26.3678 8.88274 25.2426 7.75752C24.1174 6.6323 22.5913 6.00016 21 6.00016H16C15.9375 6.00016 9.44999 5.91266 3.28749 0.737659C2.99537 0.49113 2.63836 0.334067 2.25925 0.285291C1.88013 0.236516 1.49499 0.298099 1.14999 0.462659C0.802985 0.620445 0.509443 0.875874 0.305221 1.19775C0.100999 1.51962 -0.00506365 1.894 -1.06104e-05 2.27516V21.7252C-0.00506365 22.1063 0.100999 22.4807 0.305221 22.8026C0.509443 23.1244 0.802985 23.3799 1.14999 23.5377C1.41663 23.6603 1.7065 23.7242 1.99999 23.7252C2.47036 23.7282 2.92657 23.5643 3.28749 23.2627C8.02499 19.2877 12.9375 18.3127 15 18.0752V22.4627C14.9988 22.7916 15.0793 23.1156 15.2342 23.4058C15.3891 23.6959 15.6135 23.9431 15.8875 24.1252L17.2625 25.0502C17.5332 25.2215 17.8396 25.3285 18.1581 25.3632C18.4765 25.3979 18.7987 25.3592 19.1 25.2502C19.3991 25.1339 19.6656 24.947 19.8767 24.7054C20.0879 24.4638 20.2374 24.1746 20.3125 23.8627L21.8 17.9502C23.2382 17.7514 24.5562 17.0399 25.5117 15.9467C26.4671 14.8535 26.9956 13.452 27 12.0002ZM18.375 23.3752L17 22.4627V18.0002H19.725L18.375 23.3752ZM21 16.0002H17V8.00016H21C22.0609 8.00016 23.0783 8.42159 23.8284 9.17173C24.5786 9.92188 25 10.9393 25 12.0002C25 13.061 24.5786 14.0784 23.8284 14.8286C23.0783 15.5787 22.0609 16.0002 21 16.0002Z" fill="#739274"/>
</svg>
