<svg width="24" height="20" viewBox="0 0 24 20" fill="none" xmlns="http://www.w3.org/2000/svg">
<path d="M24 13V18C24 18.5304 23.7893 19.0391 23.4142 19.4142C23.0391 19.7893 22.5304 20 22 20H2C1.46957 20 0.960859 19.7893 0.585786 19.4142C0.210714 19.0391 0 18.5304 0 18V13C0 12.4696 0.210714 11.9609 0.585786 11.5858C0.960859 11.2107 1.46957 11 2 11H22C22.5304 11 23.0391 11.2107 23.4142 11.5858C23.7893 11.9609 24 12.4696 24 13ZM22 0H2C1.46957 0 0.960859 0.210714 0.585786 0.585786C0.210714 0.960859 0 1.46957 0 2V7C0 7.53043 0.210714 8.03914 0.585786 8.41421C0.960859 8.78929 1.46957 9 2 9H22C22.5304 9 23.0391 8.78929 23.4142 8.41421C23.7893 8.03914 24 7.53043 24 7V2C24 1.46957 23.7893 0.960859 23.4142 0.585786C23.0391 0.210714 22.5304 0 22 0Z" fill="#5D5D5D"/>
</svg>
